<svg width="89" height="34" viewBox="0 0 89 34" fill="none" xmlns="http://www.w3.org/2000/svg">
<path d="M0 28.6806V5.31939H6.24049V23.5703H15.5339V28.6806H0Z" fill="black"/>
<path d="M39.4296 17C39.4296 19.6008 38.932 21.7947 37.9368 23.5818C36.9416 25.3612 35.5985 26.711 33.9074 27.6312C32.2164 28.5437 30.3308 29 28.2506 29C26.1555 29 24.2624 28.5399 22.5713 27.6198C20.8877 26.692 19.5483 25.3384 18.5531 23.5589C17.5654 21.7719 17.0716 19.5856 17.0716 17C17.0716 14.3992 17.5654 12.2091 18.5531 10.4297C19.5483 8.64258 20.8877 7.29277 22.5713 6.38023C24.2624 5.46008 26.1555 5 28.2506 5C30.3308 5 32.2164 5.46008 33.9074 6.38023C35.5985 7.29277 36.9416 8.64258 37.9368 10.4297C38.932 12.2091 39.4296 14.3992 39.4296 17ZM33.0095 17C33.0095 15.6008 32.8262 14.4221 32.4596 13.4639C32.1004 12.4981 31.5654 11.7681 30.8545 11.2738C30.1512 10.7719 29.2832 10.5209 28.2506 10.5209C27.218 10.5209 26.3463 10.7719 25.6354 11.2738C24.932 11.7681 24.397 12.4981 24.0304 13.4639C23.6712 14.4221 23.4916 15.6008 23.4916 17C23.4916 18.3992 23.6712 19.5817 24.0304 20.5475C24.397 21.5057 24.932 22.2357 25.6354 22.7376C26.3463 23.2319 27.218 23.4791 28.2506 23.4791C29.2832 23.4791 30.1512 23.2319 30.8545 22.7376C31.5654 22.2357 32.1004 21.5057 32.4596 20.5475C32.8262 19.5817 33.0095 18.3992 33.0095 17Z" fill="black"/>
<path d="M57.2447 13.0304C57.1475 12.6274 56.9941 12.2738 56.7846 11.9696C56.5751 11.6578 56.3132 11.3954 55.9989 11.1825C55.6921 10.962 55.3329 10.7985 54.9214 10.692C54.5173 10.5779 54.0721 10.5209 53.5858 10.5209C52.5382 10.5209 51.644 10.7757 50.9032 11.2852C50.1699 11.7947 49.6087 12.5285 49.2197 13.4867C48.838 14.4449 48.6472 15.6008 48.6472 16.9544C48.6472 18.3232 48.8306 19.4943 49.1972 20.4677C49.5639 21.4411 50.1101 22.1863 50.8359 22.7034C51.5617 23.2205 52.4634 23.4791 53.5409 23.4791C54.4911 23.4791 55.2806 23.3384 55.9091 23.057C56.5451 22.7757 57.0203 22.3764 57.3345 21.8593C57.6488 21.3422 57.8059 20.7338 57.8059 20.0342L58.8834 20.1483H53.6306V15.6312H63.822V18.8707C63.822 21 63.3767 22.8213 62.4863 24.3346C61.6034 25.8403 60.3837 26.9962 58.8273 27.8023C57.2784 28.6008 55.5013 29 53.496 29C51.2587 29 49.2945 28.5171 47.6034 27.5513C45.9123 26.5856 44.5917 25.2091 43.6414 23.4221C42.6986 21.635 42.2272 19.5095 42.2272 17.0456C42.2272 15.1141 42.5152 13.403 43.0914 11.9125C43.675 10.4221 44.4832 9.1635 45.5158 8.13688C46.5484 7.10266 47.7418 6.32319 49.0962 5.79848C50.4505 5.26616 51.9022 5 53.4511 5C54.8129 5 56.0775 5.19772 57.2447 5.59316C58.4195 5.98099 59.4559 6.53612 60.3538 7.25855C61.2592 7.97338 61.9887 8.82129 62.5424 9.80228C63.0961 10.7833 63.4329 11.8593 63.5526 13.0304H57.2447Z" fill="black"/>
<path d="M89 17C89 19.6008 88.5024 21.7947 87.5072 23.5818C86.512 25.3612 85.1689 26.711 83.4778 27.6312C81.7868 28.5437 79.9012 29 77.821 29C75.7259 29 73.8328 28.5399 72.1417 27.6198C70.4581 26.692 69.1187 25.3384 68.1235 23.5589C67.1358 21.7719 66.642 19.5856 66.642 17C66.642 14.3992 67.1358 12.2091 68.1235 10.4297C69.1187 8.64258 70.4581 7.29277 72.1417 6.38023C73.8328 5.46008 75.7259 5 77.821 5C79.9012 5 81.7868 5.46008 83.4778 6.38023C85.1689 7.29277 86.512 8.64258 87.5072 10.4297C88.5024 12.2091 89 14.3992 89 17ZM82.5799 17C82.5799 15.6008 82.3966 14.4221 82.03 13.4639C81.6708 12.4981 81.1358 11.7681 80.4249 11.2738C79.7216 10.7719 78.8536 10.5209 77.821 10.5209C76.7884 10.5209 75.9167 10.7719 75.2058 11.2738C74.5025 11.7681 73.9674 12.4981 73.6008 13.4639C73.2416 14.4221 73.062 15.6008 73.062 17C73.062 18.3992 73.2416 19.5817 73.6008 20.5475C73.9674 21.5057 74.5025 22.2357 75.2058 22.7376C75.9167 23.2319 76.7884 23.4791 77.821 23.4791C78.8536 23.4791 79.7216 23.2319 80.4249 22.7376C81.1358 22.2357 81.6708 21.5057 82.03 20.5475C82.3966 19.5817 82.5799 18.3992 82.5799 17Z" fill="black"/>
</svg>
